<svg width="232" height="34" viewBox="0 0 232 34" fill="none" xmlns="http://www.w3.org/2000/svg">
<g clip-path="url(#clip0_1_156)">
<path fill-rule="evenodd" clip-rule="evenodd" d="M0 17.0001C0 13.763 0.958516 10.5987 2.75434 7.90718C4.55016 5.21568 7.10263 3.11791 10.089 1.87915C13.0753 0.640392 16.3614 0.316276 19.5317 0.947791C22.702 1.57931 25.6141 3.13809 27.8997 5.42702C30.1854 7.71595 31.7419 10.6322 32.3725 13.8071C33.0031 16.9819 32.6795 20.2727 31.4425 23.2633C30.2055 26.254 28.1107 28.8101 25.4231 30.6085C22.7355 32.4069 19.5757 33.3668 16.3433 33.3668C12.0088 33.3668 7.85179 31.6425 4.78683 28.5731C1.72187 25.5037 0 21.3408 0 17.0001ZM22.3258 30.1C18.9095 31.6641 15.0179 31.8285 11.4823 30.5579C7.94663 29.2873 5.0473 26.6825 3.40361 23.3C4.09107 20.7941 5.48959 18.5418 7.42966 16.8159C7.42966 16.8867 7.42966 16.9576 7.42966 17.0298C7.43246 18.9066 7.83465 20.7613 8.60943 22.4702C9.38422 24.1792 10.5138 25.7031 11.9229 26.9405C13.332 28.1779 14.9883 29.1003 16.7813 29.6464C18.5744 30.1924 20.4631 30.3494 22.3215 30.1071L22.3258 30.1ZM16.3433 26.8416C19.8604 26.8416 23.2335 25.4428 25.7211 22.9528C28.2086 20.4628 29.6068 17.0854 29.6083 13.5632C29.6109 12.6289 29.5161 11.6969 29.3254 10.7823C30.1473 12.5061 30.6188 14.3763 30.7125 16.2842C30.8063 18.1922 30.5204 20.0997 29.8714 21.896C29.2225 23.6923 28.2235 25.3414 26.9325 26.7477C25.6415 28.1539 24.0842 29.2891 22.3512 30.0872C19.9946 29.5152 17.8365 28.3152 16.1055 26.6146C14.3746 24.914 13.1354 22.7761 12.5192 20.4274C11.9031 18.0788 11.933 15.607 12.6057 13.2739C13.2784 10.9409 14.5689 8.83365 16.3404 7.17547C14.3678 7.17882 12.4207 7.622 10.6405 8.47284C8.86019 9.32367 7.29145 10.5608 6.04811 12.0945C4.80478 13.6281 3.91806 15.4198 3.45232 17.3394C2.98658 19.259 2.95351 21.2583 3.35551 23.1923C1.73507 19.7535 1.53811 15.8125 2.8076 12.2288C4.07709 8.64519 6.71003 5.70957 10.1322 4.0622C13.5544 2.41484 17.4882 2.18939 21.0758 3.435C24.6633 4.68062 27.6135 7.29625 29.2829 10.7115C28.5977 13.2245 27.1974 15.4838 25.2526 17.214C25.2526 17.1431 25.2526 17.0723 25.2526 17.0001C25.2499 15.1185 24.8457 13.2593 24.0672 11.5469C23.2887 9.83447 22.1538 8.3084 20.7385 7.07086C19.3233 5.83332 17.6603 4.91289 15.8611 4.37119C14.0618 3.82949 12.1677 3.67903 10.3056 3.92989C12.6655 4.49774 14.8278 5.69499 16.5629 7.39452C18.298 9.09404 19.5411 11.2324 20.1602 13.5825C20.7794 15.9326 20.7514 18.4068 20.0794 20.7423C19.4073 23.0778 18.1163 25.1875 16.3433 26.8473V26.8416Z" fill="#E50020"/>
<path fill-rule="evenodd" clip-rule="evenodd" d="M221.066 14.5732H232V26.4052H216.863C215.437 26.4011 214.07 25.8317 213.061 24.8215C212.052 23.8112 211.483 22.4421 211.479 21.0134V12.9866C211.484 11.5579 212.052 10.1891 213.061 9.17891C214.07 8.16872 215.437 7.59921 216.863 7.59473H232V11.9212H218.548C217.925 11.9227 217.327 12.1714 216.886 12.6129C216.446 13.0544 216.197 13.6528 216.196 14.2771V19.7228C216.197 20.3473 216.445 20.9458 216.886 21.3875C217.327 21.8293 217.925 22.0783 218.548 22.0801H227.279V18.5951H221.066V14.5732ZM186.672 7.59473H191.168L202.303 19.8333V7.59473H206.798V26.4052H202.303L191.168 14.3976V26.4052H186.672V7.59473ZM46.8569 14.5732H42.1363V26.4052H57.2729C58.7015 26.4041 60.0715 25.836 61.0828 24.8254C62.094 23.8148 62.6642 22.4441 62.6683 21.0134V12.9866C62.6638 11.5579 62.0951 10.1891 61.0864 9.17891C60.0776 8.16872 58.7108 7.59921 57.2842 7.59473H42.1476V11.9212H55.5979C56.2216 11.9227 56.8192 12.1714 57.2603 12.6128C57.7014 13.0543 57.95 13.6526 57.9519 14.2771V19.7228C57.95 20.3474 57.7014 20.946 57.2604 21.3876C56.8193 21.8293 56.2217 22.0783 55.5979 22.0801H46.8569V14.5732ZM169.151 14.5732H181.896V18.5966H169.151V22.3833H181.896V26.4052H164.554V7.86106H181.896V11.883H169.151V14.5732ZM146.765 7.86106H159.803V11.883H142.471C142.547 10.7934 143.032 9.7731 143.829 9.02705C144.626 8.28101 145.675 7.86446 146.765 7.86106ZM142.461 14.5732H159.803V18.5966H147.057V26.4052H142.461V14.5732ZM126.272 14.5732H137.205V26.4052H122.069C120.642 26.4015 119.275 25.8322 118.266 24.8219C117.257 23.8115 116.688 22.4422 116.685 21.0134V12.9866C116.689 11.5578 117.257 10.1888 118.266 9.1785C119.275 8.16822 120.642 7.59884 122.069 7.59473H137.205V11.9212H123.754C123.13 11.9227 122.533 12.1714 122.092 12.6129C121.651 13.0544 121.403 13.6528 121.401 14.2771V19.7228C121.403 20.3473 121.651 20.9458 122.092 21.3875C122.532 21.8293 123.13 22.0783 123.754 22.0801H132.485V18.5951H126.272V14.5732ZM91.5169 7.59473H96.0126L107.147 19.8333V7.59473H111.643V26.4052H107.147L96.0126 14.3976V26.4052H91.5169V7.59473ZM71.7403 7.59473H81.5013C82.928 7.59884 84.2951 8.16822 85.3039 9.1785C86.3127 10.1888 86.8813 11.5578 86.8854 12.9866V21.0134C86.8817 22.4422 86.3132 23.8115 85.3043 24.8219C84.2954 25.8322 82.9281 26.4015 81.5013 26.4052H71.7403C70.3134 26.4015 68.946 25.8323 67.9368 24.822C66.9277 23.8116 66.3589 22.4424 66.3548 21.0134V12.9866C66.3593 11.5577 66.9282 10.1886 67.9372 9.17841C68.9463 8.16818 70.3135 7.59884 71.7403 7.59473ZM73.428 11.9212H79.8066C80.4302 11.9227 81.0278 12.1714 81.4689 12.6128C81.91 13.0543 82.1587 13.6526 82.1605 14.2771V19.7228C82.1587 20.3474 81.9101 20.946 81.469 21.3876C81.028 21.8293 80.4303 22.0783 79.8066 22.0801H73.428C72.8044 22.0783 72.2069 21.8293 71.7661 21.3875C71.3252 20.9458 71.077 20.3473 71.0755 19.7228V14.2771C71.077 13.6528 71.3253 13.0544 71.7662 12.6129C72.207 12.1714 72.8045 11.9227 73.428 11.9212Z" fill="#231815"/>
</g>
<defs>
<clipPath id="clip0_1_156">
<rect width="232" height="34" fill="white"/>
</clipPath>
</defs>
</svg>
