<svg xmlns="http://www.w3.org/2000/svg" class="logo-svg" width="141.033" height="37.402" viewBox="0 0 141.033 37.402" fill="#e60012">
    <g id="svg_logo_7" data-name="logo_group_7" transform="translate(-846 -512)">
      <g id="svg_logo_6" data-name="logo_group_6" transform="translate(846 512)">
        <g id="svg_logo_5" data-name="logo_group_5" transform="translate(0 0)">
          <g id="svg_logo_3" data-name="logo_group_3">
            <g id="svg_logo_1" data-name="logo_group_1" transform="translate(0 1.44)">
              <path id="logo_path_1" data-name="logo_path 1" d="M138.821,195.72a.368.368,0,0,0-.365-.371.36.36,0,0,0-.275.121,18.967,18.967,0,0,1-27.8-.141.353.353,0,0,0-.275-.13.37.37,0,0,0-.368.371.357.357,0,0,0,.09.238h0a18.029,18.029,0,0,0,28.9.152h0A.379.379,0,0,0,138.821,195.72Z" transform="translate(-106.297 -167.172)" fill-rule="evenodd"></path>
              <path id="logo_path_2" data-name="logo_path 2" d="M135.179,152.023a.366.366,0,0,0-.138.5.38.38,0,0,0,.246.182,18.964,18.964,0,0,1,13.775,24.142.367.367,0,0,0,.531.441.384.384,0,0,0,.163-.2h0a18.027,18.027,0,0,0-14.32-25.1h0A.351.351,0,0,0,135.179,152.023Z" transform="translate(-115.188 -151.956)" fill-rule="evenodd"></path>
              <path id="logo_path_3" data-name="logo_path 3" d="M106.022,177.1a.366.366,0,0,0,.535-.43,18.964,18.964,0,0,1,14.026-24,.357.357,0,0,0,.248-.176.366.366,0,0,0-.387-.543h0A18.027,18.027,0,0,0,105.861,176.9h0A.349.349,0,0,0,106.022,177.1Z" transform="translate(-104.428 -151.945)" fill-rule="evenodd"></path>
            </g>
            <g id="svg_logo_2" data-name="logo_group_2" transform="translate(1.179)">
              <path id="logo_path_4" data-name="logo_path 4" d="M107.089,184.942l10.024-3.077a.078.078,0,0,0,.025-.008h0a.129.129,0,0,0,.047-.023.287.287,0,0,0-.113-.536v-.005l-1.433-.249h0a.222.222,0,0,1-.185-.212.225.225,0,0,1,.07-.163h0l5.964-6.872a2.034,2.034,0,0,1,.613-.548,2.009,2.009,0,0,1,1.744-.128l-2.289-6.637-15.133,17.437h0a.629.629,0,0,0-.093.748.622.622,0,0,0,.757.267Z" transform="translate(-106.248 -155.623)" fill-rule="evenodd"></path>
              <path id="logo_path_5" data-name="logo_path 5" d="M145.311,188.666l-7.674-7.143-.019-.018h0a.246.246,0,0,0-.043-.03.291.291,0,0,0-.4.107.3.3,0,0,0-.013.262h0l.5,1.367h0a.217.217,0,0,1-.093.264.219.219,0,0,1-.174.023h0l-8.934-1.729a2,2,0,0,1-1.763-1.7l-4.6,5.3,22.666,4.387v0a.63.63,0,0,0,.693-.294.623.623,0,0,0-.146-.791Z" transform="translate(-111.827 -160.405)" fill-rule="evenodd"></path>
              <path id="logo_path_6" data-name="logo_path 6" d="M127.691,160.461c0,.007,0,.018,0,.023v0h0a.186.186,0,0,0,0,.051.291.291,0,0,0,.524.171h0l.934-1.115h0a.222.222,0,0,1,.276-.051.208.208,0,0,1,.1.141h0l2.97,8.6a2.013,2.013,0,0,1-.593,2.381L138.791,172l-7.535-21.823h0a.619.619,0,0,0-.6-.452.6.6,0,0,0-.6.518Z" transform="translate(-113.793 -149.723)" fill-rule="evenodd"></path>
            </g>
          </g>
          <g id="svg_logo_4" data-name="logo_group_4" transform="translate(44.885 8.976)">
            <path id="logo_path_7" data-name="logo_path 7" d="M189.546,170.563h-9.62a.758.758,0,1,1,0-1.516h15.1v-5.471h-15.1a6.229,6.229,0,0,0,0,12.458h9.62a.759.759,0,0,1,0,1.518H174.441v5.467h15.105a6.229,6.229,0,0,0,0-12.458Z" transform="translate(-173.698 -163.576)" fill-rule="evenodd"></path>
            <path id="logo_path_8" data-name="logo_path 8" d="M225.92,183.021h6.859L223.7,163.576h-6.861l-9.077,19.445h6.864L216,179.764h8.557Zm-7.815-8.275,2.167-5.162,2.17,5.162Z" transform="translate(-185.691 -163.576)" fill-rule="evenodd"></path>
            <path id="logo_path_9" data-name="logo_path 9" d="M264.034,163.58v.007h-.113v11.54l-8.491-11.547h-6.663v19.442h5.7V171.472l8.49,11.556,6.662,0V163.58Z" transform="translate(-200.125 -163.577)"></path>
            <path id="logo_path_10" data-name="logo_path 10" d="M301.663,163.58l-5.76,7.833-5.757-7.833h-6.79l9.154,12.45v6.992H299.3V176.03l9.155-12.45Z" transform="translate(-212.301 -163.577)"></path>
          </g>
        </g>
      </g>
    </g>
  </svg>